HIERARCHY
ROOT Hips
{
  OFFSET 90.7885 88.945 -76.2838
  CHANNELS 6 Xposition Yposition Zposition Zrotation Xrotation Yrotation
  JOINT LeftUpLeg
  {
    OFFSET 8.64259 1.95398 -2.38835
    CHANNELS 3 Zrotation Xrotation Yrotation
    JOINT LeftLeg
    {
      OFFSET 43.7702 0 0
      CHANNELS 3 Zrotation Xrotation Yrotation
      JOINT LeftFoot
      {
        OFFSET 40.6238 0 0
        CHANNELS 3 Zrotation Xrotation Yrotation
        JOINT LeftToeBase
        {
          OFFSET 12.7242 0 0
          CHANNELS 3 Zrotation Xrotation Yrotation
          End Site
          {
            OFFSET 0 0 0
          }
        }
      }
    }
  }
  JOINT RightUpLeg
  {
    OFFSET -8.2249 1.95398 -2.59336
    CHANNELS 3 Zrotation Xrotation Yrotation
    JOINT RightLeg
    {
      OFFSET 43.5653 0 0
      CHANNELS 3 Zrotation Xrotation Yrotation
      JOINT RightFoot
      {
        OFFSET 40.6238 0 0
        CHANNELS 3 Zrotation Xrotation Yrotation
        JOINT RightToeBase
        {
          OFFSET 12.7242 0 0
          CHANNELS 3 Zrotation Xrotation Yrotation
          End Site
          {
            OFFSET 0 0 0
          }
        }
      }
    }
  }
  JOINT Spine
  {
    OFFSET 0.165834 0.87714 6.61349
    CHANNELS 3 Zrotation Xrotation Yrotation
    JOINT Spine1
    {
      OFFSET 7.38963 1.71661e-005 0
      CHANNELS 3 Zrotation Xrotation Yrotation
      JOINT Spine2
      {
        OFFSET 11.9445 1.14441e-005 0
        CHANNELS 3 Zrotation Xrotation Yrotation
        JOINT Spine3
        {
          OFFSET 14.7254 4.19617e-005 0
          CHANNELS 3 Zrotation Xrotation Yrotation
          JOINT Spine4
          {
            OFFSET 10.9679 0 0
            CHANNELS 3 Zrotation Xrotation Yrotation
            JOINT RightShoulder
            {
              OFFSET 2.46616 -1.6653 3.69651
              CHANNELS 3 Zrotation Xrotation Yrotation
              JOINT RightArm
              {
                OFFSET 13.0012 0 0
                CHANNELS 3 Zrotation Xrotation Yrotation
                JOINT RightForeArm
                {
                  OFFSET 28.7848 1.52588e-005 0
                  CHANNELS 3 Zrotation Xrotation Yrotation
                  JOINT RightHand
                  {
                    OFFSET 26.5688 1.52588e-005 0
                    CHANNELS 3 Zrotation Xrotation Yrotation
                    End Site
                    {
                      OFFSET 0 0 0
                    }
                  }
                }
              }
            }
            JOINT LeftShoulder
            {
              OFFSET 2.38034 -1.29275 -3.7523
              CHANNELS 3 Zrotation Xrotation Yrotation
              JOINT LeftArm
              {
                OFFSET 16.3182 6.10352e-005 0
                CHANNELS 3 Zrotation Xrotation Yrotation
                JOINT LeftForeArm
                {
                  OFFSET 27.0901 0 0
                  CHANNELS 3 Zrotation Xrotation Yrotation
                  JOINT LeftHand
                  {
                    OFFSET 24.5451 1.52588e-005 0
                    CHANNELS 3 Zrotation Xrotation Yrotation
                    End Site
                    {
                      OFFSET 0 0 0
                    }
                  }
                }
              }
            }
            JOINT Neck
            {
              OFFSET 5.0226 -0.0266342 0
              CHANNELS 3 Zrotation Xrotation Yrotation
              JOINT Head
              {
                OFFSET 6.69363 2.86102e-005 0
                CHANNELS 3 Zrotation Xrotation Yrotation
                End Site
                {
                  OFFSET 0 0 0
                }
              }
            }
          }
        }
      }
    }
  }
}
MOTION
Frames:	15
Frame Time:	0.0416667
-4.82016 97.4256 359.083 -144.791 -82.0223 -145.156 -176.283 -7.07906 92.0484 -7.56832 2.42771 0.108785 68.3194 4.36502 0.0375494 20.7844 -0.829742 2.3669 170.417 -3.12093 86.3576 -11.2117 -14.7937 -2.22617 65.3411 -2.90384 0.236481 26.2268 -1.25817 3.37076 0.465015 7.541 -90.3333 11.7941 0.768172 -0.746022 0.12317 0.734586 -0.779121 -22.413 0.956854 -0.480676 -2.40032 0.956857 -0.480671 91.28 -28.3913 -104.784 42.2227 -16.3273 -6.19433 7.60773 -23.1157 -12.4415 -30.5679 -0.646291 -7.19774 -89.6625 -56.2446 80.4634 -20.1443 22.6347 -15.985 0.820424 -1.96725 -7.36176 -4.87783 -0.0550809 -5.99094 4.51054 -2.77156 -0.371361 -9.1074 -2.7423 1.18125 
-4.84804 97.4185 359.082 -144.59 -82.0295 -144.793 -176.074 -6.91984 92.4284 -7.81831 2.08984 0.0276029 70.4717 5.04958 -1.85262 15.0018 -2.30561 4.79147 170.414 -3.20733 86.5001 -11.0534 -15.151 -2.12442 65.3838 -2.97844 -0.0400073 25.9884 -1.03701 2.91665 0.430627 7.52374 -90.3192 11.8291 0.706237 -0.711669 0.158146 0.674243 -0.74207 -22.3778 0.887477 -0.466506 -2.36515 0.887474 -0.466517 90.484 -29.1113 -106.122 41.736 -15.8498 -5.82085 4.75721 -23.4065 -14.7443 -31.23 -1.12442 -5.30561 -89.588 -54.5466 80.2512 -20.9111 23.2585 -15.1817 0.685029 -2.39747 -8.44445 -4.09319 -0.0295614 -8.50037 4.03394 -2.5836 -1.75886 -8.80568 -2.4028 2.6492 
-4.93994 97.4293 359.099 -145.078 -82.3114 -145.309 -176.164 -6.79189 92.4598 -7.68767 2.09562 0.192161 70.1386 4.86074 -2.32395 15.6448 -2.28923 4.70206 170.397 -3.08797 86.5462 -10.9172 -14.9845 -2.02282 65.2389 -2.91596 -0.191539 26.1217 -1.20201 3.26037 0.30112 7.53588 -90.1303 11.8026 0.537638 -0.316809 0.131669 0.523181 -0.340166 -22.4043 0.60799 -0.140575 -2.39162 0.607993 -0.140576 88.6028 -31.4851 -108.906 40.0914 -15.6193 -6.12047 5.19466 -22.5427 -14.3909 -31.1256 -1.01326 -5.57982 -88.2266 -51.1304 81.5904 -23.579 20.6362 -14.6301 2.88114 2.87358 -8.60738 -5.49671 -0.0116484 -7.19217 4.00724 -2.39654 -2.9482 -8.62463 -1.92557 1.2835 
-5.25917 97.4501 359.095 -149.675 -82.7501 -149.922 -175.498 -6.65133 93.1373 -7.53976 3.56513 -0.360396 70.0003 4.92667 -2.26362 15.6202 -2.21443 4.61692 170.616 -3.00665 86.8928 -11.2439 -14.4752 -2.03922 65.0175 -2.7546 -0.50595 26.3919 -1.14608 3.09568 0.273298 7.53328 -90.1916 11.8081 0.453455 -0.430284 0.137196 0.434082 -0.449836 -22.3983 0.561802 -0.274112 -2.38566 0.561802 -0.274121 88.975 -30.8351 -108.445 40.5208 -15.3742 -5.90782 4.65628 -22.5237 -14.3623 -27.8305 -0.792444 -6.50451 -88.6444 -52.564 81.2375 -21.8947 21.7272 -14.8075 2.22384 1.92371 -9.01999 -6.34121 0.0160104 -7.67944 3.73019 -2.33092 -1.68207 -8.27059 -2.03048 0.361195 
-5.74666 97.4177 358.989 -152.702 -82.4198 -153.05 -174.91 -6.83151 93.7463 -7.87175 3.7241 -0.734407 70.263 5.13757 -3.02527 15.6746 -1.98397 4.3429 170.776 -3.07814 87.1264 -12.1526 -14.0986 -2.09843 65.3975 -2.84268 -0.699264 26.1989 -1.10821 3.04171 0.285161 7.60443 -90.1816 11.6658 0.482136 -0.412178 -0.00511592 0.463532 -0.433002 -22.5408 0.583717 -0.248221 -2.52811 0.583723 -0.248216 88.8625 -31.2253 -108.507 39.9284 -15.602 -5.57945 4.18939 -21.6589 -14.9503 -23.6354 -0.529263 -7.84423 -88.3665 -53.4447 81.7984 -20.936 20.4378 -15.4253 2.63841 2.4517 -8.15637 -0.269051 -0.108851 -5.36812 2.43391 -2.83793 -1.44722 -6.98222 -2.54813 -0.54443 
-6.38326 97.3561 358.628 -152.406 -82.3196 -153.241 -174.421 -6.34146 94.0195 -8.47507 4.19017 -1.27003 70.1517 5.3451 -3.19693 15.5839 -2.51411 4.97025 170.785 -2.21367 87.0859 -13.6306 -14.1601 -2.08872 66.0869 -3.05285 -0.91054 26.0424 -0.976151 2.77409 0.381963 7.6395 -90.0838 11.5958 0.720612 -0.241472 -0.0749592 0.709287 -0.27296 -22.6117 0.759864 -0.0137178 -2.59907 0.759868 -0.0137217 88.4856 -31.4004 -109.163 39.9152 -14.9974 -5.57928 5.1555 -22.2447 -14.1472 -26.5579 -0.706638 -6.87608 -88.1632 -53.7666 82.1475 -20.0024 20.2591 -14.7964 2.35711 -0.869503 -9.33063 0.35195 -0.171478 -7.78115 3.07082 -2.21699 -1.85818 -8.16162 -1.91867 0.753125 
-7.35278 97.217 357.83 -163.123 -82.6553 -164.493 -173.861 -4.4194 94.2928 -11.0419 6.4714 -1.50212 70.2283 5.53424 -3.13358 16.5143 -2.57461 4.96249 171.251 -1.25759 87.6145 -15.3866 -12.3819 -2.25704 66.9078 -3.12649 -1.39965 25.0347 -1.09 3.18087 0.401517 7.73728 -90.0468 11.4 0.77711 -0.171912 -0.270758 0.768791 -0.205955 -22.8078 0.792846 0.0696112 -2.79512 0.792842 0.0695985 88.5124 -30.8892 -109.323 39.8143 -15.1497 -5.57023 4.47681 -22.0659 -14.6938 -25.2177 -0.647197 -7.21485 -88.1992 -55.1242 82.3257 -19.3312 17.8389 -14.3991 2.76972 -4.60561 -9.36032 -1.3894 -0.129912 -8.64207 2.16926 -2.93583 -0.511781 -6.70202 -2.77678 -1.28866 
-8.5327 96.8706 356.395 175.461 -83.4032 173.318 -174.049 0.739537 94.2922 -16.7717 9.4692 -0.8155 70.0009 5.45794 -2.50928 17.9687 -3.32119 5.75621 171.064 1.47008 87.5442 -18.6839 -10.3153 -1.55946 68.4046 -3.32818 -2.27128 23.7437 -1.18364 3.57147 0.455089 7.82771 -89.9541 11.2191 0.92714 0.000352513 -0.451553 0.926247 -0.0404599 -22.9892 0.884161 0.278998 -2.97655 0.884166 0.279005 88.8214 -30.3524 -108.941 39.923 -15.328 -5.84694 4.54767 -23.0155 -14.7768 -24.3356 -0.541126 -8.12143 -88.5543 -55.5755 81.8996 -16.4368 17.6552 -12.5366 2.73238 -5.77696 -13.8185 1.94649 -0.108462 -5.68395 2.84227 -4.08227 1.12999 -5.93569 -4.0573 -4.52156 
-9.73427 96.3007 354.485 139.726 -82.7919 136.76 -173.816 7.86048 94.1394 -24.1907 14.3263 -0.77035 68.2193 4.45311 -2.69585 19.1609 -2.99666 5.26553 170.264 5.33183 87.4373 -22.1756 -7.4055 -0.231092 69.8428 -3.27513 -2.51023 22.97 -1.58752 4.51233 0.427276 7.86872 -89.8305 11.1356 0.929244 0.246944 -0.535016 0.939208 0.205804 -23.0721 0.812064 0.51482 -3.05948 0.812067 0.514824 88.912 -30.2521 -108.804 40.0262 -14.8544 -5.2831 4.52451 -22.4321 -15.3636 -25.035 -0.516904 -8.00883 -87.9831 -54.5704 82.541 -16.5815 14.4639 -12.8613 4.93086 -2.03646 -14.2573 0.199788 -0.123124 -5.82159 4.3686 -6.01799 -0.353982 -4.40238 -5.78244 -3.6954 
-10.5742 95.8711 353.153 124.57 -79.8286 121.182 -173.207 11.8565 94.0203 -33.0414 14.3236 -0.676092 74.8749 6.54076 -5.77865 8.31666 -10.9368 14.1003 169.866 6.87487 87.4233 -24.5369 -4.01506 0.454206 71.0434 -2.79984 -2.35578 21.6604 -1.66056 4.81067 0.388746 7.98966 -89.8402 10.8938 0.847878 0.238027 -0.776879 0.857527 0.200472 -23.3136 0.737136 0.48185 -3.30099 0.737136 0.481854 89.0928 -30.1101 -108.507 39.3103 -14.144 -4.51213 4.8493 -22.2493 -14.6785 -24.957 -0.482083 -8.15278 -88.5844 -53.4894 81.4925 -18.1976 12.7621 -10.2863 4.87428 -4.4162 -14.4362 0.146624 -0.137418 -6.00526 5.29567 -6.81704 -1.71084 -3.39165 -6.34239 -3.42424 
-11.0099 95.7467 352.252 123.28 -77.6901 119.739 -172.663 13.1749 94.1927 -45.1525 14.3697 0.435866 71.2429 5.51225 -3.67369 19.1082 -2.96327 5.37342 169.521 6.96545 87.3197 -25.7189 -2.8597 0.8243 71.1375 -2.5857 -2.48722 21.67 -1.68132 4.85038 0.33669 8.00019 -89.8582 10.873 0.735883 0.213 -0.797749 0.744542 0.180393 -23.3341 0.637846 0.42432 -3.32142 0.637842 0.424314 89.574 -30.2116 -107.519 39.7995 -13.0179 -3.0757 5.0259 -21.2839 -14.0359 -25.1852 -0.45721 -7.99219 -87.943 -53.2483 82.377 -18.5544 15.5557 -8.0888 3.57814 -5.0237 -12.0951 -5.2565 0.146539 -9.09261 3.53019 -6.84768 -3.21289 -3.10953 -6.16035 -3.37557 
-11.0367 95.5454 351.5 124.958 -76.4068 121.63 -171.693 10.3257 95.4044 -51.911 17.2002 1.59182 69.7896 5.00633 -2.34426 19.6194 -2.69029 4.8476 169.396 6.65576 87.3923 -26.4536 -2.43294 1.00154 71.5449 -2.58195 -2.66767 21.2031 -1.52275 4.58635 0.163921 7.9681 -89.9134 10.9373 0.366453 0.13743 -0.733558 0.372141 0.121158 -23.269 0.308197 0.241206 -3.25632 0.308208 0.241206 89.8497 -30.5665 -106.84 40.526 -12.3706 -1.31761 4.97755 -20.3197 -14.0713 -24.7643 -0.311523 -8.53511 -87.9927 -52.8508 82.2374 -21.2771 13.1373 -4.37324 4.40391 -4.39891 -9.24395 -4.32463 0.0151614 -7.00645 2.38961 -6.27771 -3.62576 -3.94594 -5.54692 -3.91221 
-10.6511 95.5243 350.315 126.127 -75.6204 123.316 -171.052 5.27272 97.3001 -51.19 22.0477 2.58941 68.2487 4.36225 -1.72731 18.0706 -2.50372 4.74773 169.297 6.49903 87.4693 -26.1413 -2.19759 1.15401 70.8771 -2.29124 -2.36438 20.2121 -1.57064 4.78977 -0.0135102 7.88693 -90.0352 11.1 -0.0431664 -0.065891 -0.570956 -0.0460224 -0.0639362 -23.1061 -0.0213653 -0.075817 -3.09346 -0.021365 -0.075826 90.0928 -30.6996 -106.312 41.5667 -11.6623 0.983898 4.89281 -19.1111 -14.076 -24.3887 -0.292297 -8.32813 -88.12 -53.7659 82.2094 -20.6701 15.7187 -4.41608 3.0263 -4.4453 -5.25945 -2.52675 -0.0888346 -5.62778 1.07895 -5.96131 -4.13969 -3.92266 -5.23471 -2.40397 
-9.7229 95.5762 348.586 130.434 -74.6438 128.263 -170.185 -1.7216 99.3433 -43.8195 25.955 2.83537 70.4019 4.84948 -4.16828 19.8248 -2.97398 5.10426 168.865 5.71016 87.0792 -25.3092 -3.3145 1.43374 69.4716 -1.91814 -2.8401 19.6044 -1.87851 5.44708 -0.134997 7.92423 -90.202 11.0245 -0.362317 -0.367016 -0.646409 -0.378108 -0.350723 -23.1813 -0.235263 -0.458943 -3.16861 -0.23526 -0.458937 90.3062 -30.393 -106.005 42.8925 -11.0916 2.9741 5.43686 -19.2385 -13.4214 -24.8125 -0.317379 -8.19774 -88.718 -54.7785 81.5296 -20.4157 15.766 -6.88421 3.0323 -3.20363 -3.55308 -2.9312 -0.0766754 -6.84334 0.035994 -5.62385 -3.43326 -4.0179 -5.03872 -2.70329 
-8.44228 95.2032 344.99 129.26 -73.4431 127.661 -169.243 -6.06088 100.46 -34.1219 31.5264 2.11309 74.1238 6.05608 -3.02461 28.7126 1.80081 -2.63431 169.079 7.7489 86.7558 -25.9805 -2.17289 1.25044 67.1695 -0.516896 -1.71224 19.608 -1.43048 4.58611 -0.386378 7.96527 -90.2614 10.9416 -0.890195 -0.43582 -0.729095 -0.908509 -0.396221 -23.2654 -0.71806 -0.683217 -3.25277 -0.718057 -0.683219 89.81 -31.3408 -106.627 42.6922 -10.4826 3.73902 5.44862 -18.1533 -13.3557 -27.116 -0.353473 -7.50396 -88.3671 -53.8309 81.8646 -20.9769 14.2896 -12.615 4.21647 -0.100607 -3.8546 -3.13505 -0.0668928 -7.76965 0.0605605 -4.73311 -6.02126 -4.51868 -3.8454 0.154726 
